<svg width="12" height="23" viewBox="0 0 12 23" fill="none" xmlns="http://www.w3.org/2000/svg">
<path opacity="0.4" d="M11.5481 0.00478553L8.66987 0C5.43624 0 3.34653 2.22169 3.34653 5.66033V8.27013H0.452577C0.202505 8.27013 0 8.48021 0 8.73934V12.5206C0 12.7798 0.202736 12.9896 0.452577 12.9896H3.34653V22.5311C3.34653 22.7902 3.54904 23 3.79911 23H7.57489C7.82496 23 8.02747 22.7899 8.02747 22.5311V12.9896H11.4112C11.6613 12.9896 11.8638 12.7798 11.8638 12.5206L11.8651 8.73934C11.8651 8.61491 11.8173 8.49577 11.7326 8.4077C11.6479 8.31965 11.5324 8.27013 11.4123 8.27013H8.02747V6.05777C8.02747 4.99442 8.27201 4.45461 9.60874 4.45461L11.5477 4.4539C11.7975 4.4539 12 4.24381 12 3.98492V0.473768C12 0.21511 11.7977 0.00526409 11.5481 0.00478553Z" fill="#333333"/>
</svg>
