<svg width="19" height="19" viewBox="0 0 19 19" fill="none" xmlns="http://www.w3.org/2000/svg">
<path opacity="0.4" d="M9.49742 6.33197C7.75304 6.33197 6.32947 7.75556 6.32947 9.5C6.32947 11.2444 7.75304 12.668 9.49742 12.668C11.2418 12.668 12.6654 11.2444 12.6654 9.5C12.6654 7.75556 11.2418 6.33197 9.49742 6.33197ZM18.999 9.5C18.999 8.18811 19.0108 6.88811 18.9371 5.57859C18.8634 4.05757 18.5165 2.70766 17.4042 1.5954C16.2896 0.480781 14.9422 0.136173 13.4211 0.0624985C12.1093 -0.0111762 10.8093 0.000706908 9.49981 0.000706908C8.18795 0.000706908 6.88797 -0.0111762 5.57848 0.0624985C4.05749 0.136173 2.7076 0.483157 1.59537 1.5954C0.48077 2.71003 0.13617 4.05757 0.0624959 5.57859C-0.0111766 6.89048 0.000707021 8.19048 0.000707021 9.5C0.000707021 10.8095 -0.0111766 12.1119 0.0624959 13.4214C0.13617 14.9424 0.483147 16.2923 1.59537 17.4046C2.70998 18.5193 4.05749 18.8638 5.57848 18.9375C6.89034 19.0112 8.19032 18.9993 9.49981 18.9993C10.8117 18.9993 12.1116 19.0112 13.4211 18.9375C14.9422 18.8638 16.292 18.5168 17.4042 17.4046C18.5188 16.2899 18.8634 14.9424 18.9371 13.4214C19.0131 12.1119 18.999 10.8119 18.999 9.5ZM9.49742 14.3744C6.80004 14.3744 4.62311 12.1974 4.62311 9.5C4.62311 6.80255 6.80004 4.62558 9.49742 4.62558C12.1948 4.62558 14.3718 6.80255 14.3718 9.5C14.3718 12.1974 12.1948 14.3744 9.49742 14.3744ZM14.5713 5.56434C13.9416 5.56434 13.433 5.05574 13.433 4.42594C13.433 3.79615 13.9416 3.28755 14.5713 3.28755C15.2012 3.28755 15.7098 3.79615 15.7098 4.42594C15.71 4.57549 15.6806 4.72361 15.6234 4.86181C15.5664 5.00001 15.4824 5.12559 15.3767 5.23133C15.271 5.33707 15.1454 5.42092 15.0073 5.47807C14.869 5.53521 14.7209 5.56452 14.5713 5.56434Z" fill="#333333"/>
</svg>
