<svg width="26" height="15" viewBox="0 0 26 15" fill="none" xmlns="http://www.w3.org/2000/svg">
<path opacity="0.4" d="M25.8622 13.5466C25.8306 13.478 25.8013 13.4211 25.774 13.3754C25.3229 12.554 24.461 11.5456 23.1885 10.3501L23.1615 10.3227L23.1482 10.3093L23.1345 10.2956H23.1209C22.5433 9.73888 22.1776 9.36457 22.0244 9.17295C21.7442 8.8079 21.6815 8.43838 21.8347 8.064C21.9428 7.78113 22.3493 7.18374 23.0531 6.27104C23.4231 5.78732 23.7162 5.39965 23.9329 5.10757C25.4943 3.00857 26.1712 1.66728 25.9634 1.08319L25.8829 0.946694C25.8286 0.86451 25.6887 0.789334 25.4633 0.720774C25.2375 0.652358 24.9488 0.641045 24.5967 0.686639L20.6982 0.71387C20.6351 0.691242 20.5447 0.693351 20.4274 0.720774C20.31 0.748198 20.2513 0.761958 20.2513 0.761958L20.1834 0.796239L20.1296 0.837426C20.0844 0.864652 20.0348 0.912559 19.9806 0.981019C19.9267 1.04924 19.8816 1.12931 19.8456 1.22055C19.4211 2.32474 18.9386 3.35138 18.3969 4.30038C18.0629 4.86627 17.7562 5.35669 17.4762 5.77194C17.1965 6.18704 16.9619 6.49286 16.7725 6.68892C16.5828 6.88515 16.4117 7.04235 16.2579 7.16112C16.1045 7.27992 15.9874 7.33011 15.9061 7.31175C15.8248 7.2934 15.7484 7.27518 15.6758 7.25696C15.5495 7.17478 15.4481 7.06302 15.3715 6.92159C15.2944 6.78015 15.2428 6.60214 15.2156 6.38767C15.1886 6.17308 15.1727 5.98849 15.1682 5.8333C15.164 5.6783 15.1659 5.45905 15.1751 5.17617C15.1844 4.89316 15.1886 4.70168 15.1886 4.60128C15.1886 4.25446 15.1954 3.87804 15.2088 3.47196C15.2225 3.06587 15.2336 2.74412 15.2428 2.50708C15.252 2.2698 15.2562 2.01878 15.2562 1.75412C15.2562 1.48947 15.2403 1.28191 15.2088 1.13127C15.1777 0.98083 15.13 0.834791 15.0671 0.693206C15.0038 0.551773 14.9111 0.442362 14.7896 0.364694C14.6678 0.287119 14.5163 0.22556 14.3361 0.179822C13.8577 0.0703639 13.2486 0.0111534 12.5084 0.00194748C10.8299 -0.0162703 9.75135 0.0933298 9.27304 0.330606C9.08351 0.430856 8.91202 0.567833 8.75869 0.741103C8.5962 0.941946 8.57353 1.05155 8.69085 1.06958C9.2324 1.1516 9.61578 1.34784 9.84144 1.65809L9.92276 1.82249C9.986 1.94109 10.0492 2.1511 10.1124 2.45218C10.1755 2.75327 10.2162 3.08634 10.2341 3.45119C10.2792 4.11748 10.2792 4.68781 10.2341 5.16227C10.1889 5.63692 10.1463 6.00642 10.1055 6.27107C10.0648 6.53573 10.0039 6.75018 9.92276 6.91439C9.84144 7.07865 9.78734 7.17904 9.76022 7.21548C9.73314 7.25192 9.71057 7.27488 9.69266 7.28389C9.57535 7.32935 9.45336 7.35251 9.32709 7.35251C9.20064 7.35251 9.04731 7.28854 8.86683 7.16074C8.68643 7.03291 8.4992 6.85734 8.30512 6.63372C8.11106 6.41007 7.89221 6.09752 7.64844 5.69603C7.40488 5.29456 7.15216 4.82005 6.89042 4.27254L6.67388 3.87545C6.53852 3.62 6.35359 3.24806 6.11896 2.75994C5.88416 2.27163 5.67662 1.79928 5.4962 1.34299C5.42409 1.15137 5.31574 1.00547 5.17138 0.905066L5.10363 0.863895C5.05858 0.827456 4.98627 0.788759 4.88709 0.747528C4.78775 0.706344 4.6841 0.67681 4.57571 0.658638L0.866535 0.685871C0.487518 0.685871 0.230337 0.772699 0.0949228 0.946111L0.0407284 1.02814C0.0136562 1.07384 0 1.14681 0 1.24724C0 1.34765 0.0270738 1.47086 0.0812681 1.61676C0.622739 2.90358 1.21158 4.14461 1.84777 5.34005C2.48399 6.53549 3.03684 7.49845 3.50599 8.22806C3.97525 8.95821 4.45358 9.64731 4.94094 10.295C5.42831 10.943 5.75092 11.3582 5.90876 11.5407C6.06679 11.7234 6.19092 11.8601 6.28115 11.9513L6.61965 12.2798C6.83624 12.4988 7.15428 12.7612 7.57395 13.0668C7.9937 13.3727 8.45841 13.6737 8.96831 13.9705C9.47829 14.267 10.0716 14.5087 10.7485 14.6958C11.4254 14.883 12.0841 14.9582 12.7249 14.9219H14.2818C14.5974 14.8943 14.8366 14.794 14.9993 14.6207L15.0531 14.5521C15.0893 14.4975 15.1233 14.413 15.1545 14.299C15.1861 14.1851 15.2019 14.0594 15.2019 13.9227C15.1927 13.5303 15.2222 13.1767 15.2897 12.862C15.3573 12.5472 15.434 12.31 15.5201 12.1502C15.6061 11.9905 15.7031 11.8558 15.8111 11.7466C15.9192 11.6371 15.9964 11.5708 16.0417 11.548C16.0866 11.525 16.1225 11.5095 16.1494 11.5001C16.3661 11.4271 16.621 11.4978 16.9145 11.7124C17.2079 11.9269 17.4831 12.1917 17.7405 12.5064C17.9977 12.8214 18.3068 13.1749 18.6676 13.5671C19.0289 13.9596 19.3446 14.2513 19.6151 14.4432L19.8858 14.6076C20.0666 14.7171 20.3012 14.8175 20.5901 14.9087C20.8784 15 21.1311 15.0228 21.348 14.9772L24.8134 14.9225C25.1561 14.9225 25.4227 14.8651 25.6119 14.7512C25.8016 14.6371 25.9141 14.5115 25.9504 14.3749C25.9866 14.2381 25.9887 14.0828 25.9573 13.9092C25.9252 13.736 25.8937 13.615 25.8622 13.5466Z" fill="#333333"/>
</svg>
